# xmcd CD database file
#
# Track frame offsets:
#	150
#	11115
#	21555
#	33654
#	44059
#	54409
#	66857
#	75931
#	87192
#	99057
#	109540
#	124058
#	138953
#	155997
#	186414
#	202741
#	217521
#	229253
#	237298
#	251060
#	271279
#	280864
#	291674
#	318452
#	332684
#	344032
#
# Disc length: 4747 seconds
#
# Revision: 0
# Processed by: cddbd v1.5.2PL0 Copyright (c) Steve Scherf et al.
# Submitted via: CDex 1.51
#
DISCID=8212891a
DTITLE=Various Yardbird (1-11) Othe JM and EC (12-14) - John Mayall and The Bluesbreakers With Eric Clapton (15-26)
DYEAR=1900
DGENRE=Blues
TTITLE0=The Yardbirds - Boom Boom
TTITLE1=The Yardbirds - Honey in your hips
TTITLE2=The Yardbirds - Baby what's wrong
TTITLE3=The Yardbirds - I wish you would
TTITLE4=The Yardbirds - A certain girl
TTITLE5=The Yardbirds - Good morning little shoolgirl
TTITLE6=The Yardbirds - I ain't got you
TTITLE7=The Yardbirds - For your love
TTITLE8=The Yardbirds - Got to hurry
TTITLE9=The Yardbirds - Let It Rock
TTITLE10=The Yardbirds - Meet Me On The Water Coast
TTITLE11=John Mayall and Eric Clapton - Lonely years
TTITLE12=John Mayall and Eric Clapton - Bernard Jenkins
TTITLE13=John Mayall's BluesBreakers - Have you ever loved a woman
TTITLE14=John Mayall's Bluesbreakers - 01-All Your Love
TTITLE15=John Mayall's Bluesbreakers - 02-Hideaway
TTITLE16=John Mayall's Bluesbreakers - 03-Little Girl
TTITLE17=John Mayall's Bluesbreakers - 04-Another Man
TTITLE18=John Mayall's Bluesbreakers - 05-Double Crossing Time
TTITLE19=John Mayall's Bluesbreakers - 06-What'd I Say
TTITLE20=John Mayall's Bluesbreakers - 07-Key To Love
TTITLE21=John Mayall's Bluesbreakers - 08-Parchman Farm
TTITLE22=John Mayall's Bluesbreakers - 09-Have You Heard
TTITLE23=John Mayall's Bluesbreakers - 10-Ramblin' On My Mind
TTITLE24=John Mayall's Bluesbreakers - 11-Steppin Out
TTITLE25=John Mayall's Bluesbreakers - 12-It Ain't Right
EXTD=
EXTT0=
EXTT1=
EXTT2=
EXTT3=
EXTT4=
EXTT5=
EXTT6=
EXTT7=
EXTT8=
EXTT9=
EXTT10=
EXTT11=
EXTT12=
EXTT13=
EXTT14=
EXTT15=
EXTT16=
EXTT17=
EXTT18=
EXTT19=
EXTT20=
EXTT21=
EXTT22=
EXTT23=
EXTT24=
EXTT25=
PLAYORDER=
